# xmcd
# 
# Track frame offsets:
#     150
#     17332
#     35997
#     53237
#     70772
#     89067
#     109452
#     126949
#     133044
#     154079
#     172069
#     196985
#     216107
#     238860
#     254456
#     277507
#     297281
#     318707
#     320671
#     328917
# 
# Disc length: 4589
# 
# Revision: 3
# Processed by: cddbd v1.5.2PL0 Copyright (c) Steve Scherf et al.
# Submitted via: fre:ac v1.0.31
# 
DISCID=3d11eb14
DTITLE=Electric Light Orchestra - Out Of The Blue
DYEAR=1977
DGENRE=Rock/Pop
TTITLE0=Turn To Stone
TTITLE1=It's Over
TTITLE2=Sweet Talkin' Woman
TTITLE3=Across The Border
TTITLE4=Night In The City
TTITLE5=Starlight
TTITLE6=Jungle
TTITLE7=Believe Me Now
TTITLE8=Steppin' Out
TTITLE9=Standin' In The Rain
TTITLE10=Big Wheels
TTITLE11=Summer And Lightning
TTITLE12=Mr. Blue Sky
TTITLE13=Sweet Is The Night
TTITLE14=The Whale
TTITLE15=Birmingham Blues
TTITLE16=Wild West Hero
TTITLE17=Wild West Hero (Alternate Bridge Home Demo)
TTITLE18=The Quick And The Draft
TTITLE19=Latitude 88 North
EXTD=
EXTT0=
EXTT1=
EXTT2=
EXTT3=
EXTT4=
EXTT5=
EXTT6=
EXTT7=
EXTT8=
EXTT9=
EXTT10=
EXTT11=
EXTT12=
EXTT13=
EXTT14=
EXTT15=
EXTT16=
EXTT17=
EXTT18=
EXTT19=
PLAYORDER=
